<mxfile host="app.diagrams.net" modified="2023-03-17T09:09:02.647Z" agent="5.0 (Windows NT 10.0; Win64; x64) AppleWebKit/537.36 (KHTML, like Gecko) Chrome/110.0.0.0 Safari/537.36" etag="QvxRfJjgmY511PKC04Oa" version="21.0.6" type="github">
  <diagram name="第 1 页" id="EC7GU5xyf1cb4WEY5NC5">
    <mxGraphModel dx="1050" dy="558" grid="1" gridSize="10" guides="1" tooltips="1" connect="1" arrows="1" fold="1" page="1" pageScale="1" pageWidth="827" pageHeight="1169" math="0" shadow="0">
      <root>
        <mxCell id="0" />
        <mxCell id="1" parent="0" />
        <mxCell id="GaJFrRK0M9Px8FpaFqOM-52" value="" style="group" vertex="1" connectable="0" parent="1">
          <mxGeometry x="280" y="305" width="320" height="430" as="geometry" />
        </mxCell>
        <mxCell id="GaJFrRK0M9Px8FpaFqOM-69" value="" style="rounded=0;whiteSpace=wrap;html=1;" vertex="1" parent="GaJFrRK0M9Px8FpaFqOM-52">
          <mxGeometry x="-180" y="-15" width="500" height="445" as="geometry" />
        </mxCell>
        <mxCell id="GaJFrRK0M9Px8FpaFqOM-13" value="" style="rounded=1;whiteSpace=wrap;html=1;fillColor=#ffe6cc;strokeColor=#d79b00;" vertex="1" parent="GaJFrRK0M9Px8FpaFqOM-52">
          <mxGeometry width="95" height="110" as="geometry" />
        </mxCell>
        <mxCell id="GaJFrRK0M9Px8FpaFqOM-5" value="Slave" style="shape=cylinder3;whiteSpace=wrap;html=1;boundedLbl=1;backgroundOutline=1;size=15;fillColor=#f5f5f5;fontColor=#333333;strokeColor=#666666;" vertex="1" parent="GaJFrRK0M9Px8FpaFqOM-52">
          <mxGeometry x="10" y="5" width="75" height="100" as="geometry" />
        </mxCell>
        <mxCell id="GaJFrRK0M9Px8FpaFqOM-49" value="Master" style="shape=cylinder3;whiteSpace=wrap;html=1;boundedLbl=1;backgroundOutline=1;size=15;fillColor=#d5e8d4;strokeColor=#82b366;" vertex="1" parent="1">
          <mxGeometry x="233.25" y="525" width="75" height="100" as="geometry" />
        </mxCell>
        <mxCell id="GaJFrRK0M9Px8FpaFqOM-50" value="Master" style="shape=cylinder3;whiteSpace=wrap;html=1;boundedLbl=1;backgroundOutline=1;size=15;fillColor=#d5e8d4;strokeColor=#82b366;" vertex="1" parent="1">
          <mxGeometry x="308.25" y="435" width="75" height="100" as="geometry" />
        </mxCell>
        <mxCell id="GaJFrRK0M9Px8FpaFqOM-51" value="Master" style="shape=cylinder3;whiteSpace=wrap;html=1;boundedLbl=1;backgroundOutline=1;size=15;fillColor=#d5e8d4;strokeColor=#82b366;" vertex="1" parent="1">
          <mxGeometry x="379" y="555" width="75" height="100" as="geometry" />
        </mxCell>
        <mxCell id="GaJFrRK0M9Px8FpaFqOM-53" value="" style="group" vertex="1" connectable="0" parent="1">
          <mxGeometry x="497" y="585" width="95" height="110" as="geometry" />
        </mxCell>
        <mxCell id="GaJFrRK0M9Px8FpaFqOM-54" value="" style="rounded=1;whiteSpace=wrap;html=1;fillColor=#ffe6cc;strokeColor=#d79b00;" vertex="1" parent="GaJFrRK0M9Px8FpaFqOM-53">
          <mxGeometry width="95" height="110" as="geometry" />
        </mxCell>
        <mxCell id="GaJFrRK0M9Px8FpaFqOM-55" value="Slave" style="shape=cylinder3;whiteSpace=wrap;html=1;boundedLbl=1;backgroundOutline=1;size=15;fillColor=#f5f5f5;fontColor=#333333;strokeColor=#666666;" vertex="1" parent="GaJFrRK0M9Px8FpaFqOM-53">
          <mxGeometry x="10" y="5" width="75" height="100" as="geometry" />
        </mxCell>
        <mxCell id="GaJFrRK0M9Px8FpaFqOM-59" value="" style="group" vertex="1" connectable="0" parent="1">
          <mxGeometry x="120" y="605" width="95" height="110" as="geometry" />
        </mxCell>
        <mxCell id="GaJFrRK0M9Px8FpaFqOM-60" value="" style="rounded=1;whiteSpace=wrap;html=1;fillColor=#ffe6cc;strokeColor=#d79b00;" vertex="1" parent="GaJFrRK0M9Px8FpaFqOM-59">
          <mxGeometry width="95" height="110" as="geometry" />
        </mxCell>
        <mxCell id="GaJFrRK0M9Px8FpaFqOM-61" value="Slave" style="shape=cylinder3;whiteSpace=wrap;html=1;boundedLbl=1;backgroundOutline=1;size=15;fillColor=#f5f5f5;fontColor=#333333;strokeColor=#666666;" vertex="1" parent="GaJFrRK0M9Px8FpaFqOM-59">
          <mxGeometry x="10" y="5" width="75" height="100" as="geometry" />
        </mxCell>
        <mxCell id="GaJFrRK0M9Px8FpaFqOM-65" value="" style="endArrow=classic;html=1;rounded=0;exitX=0;exitY=0.5;exitDx=0;exitDy=0;exitPerimeter=0;entryX=1;entryY=0.5;entryDx=0;entryDy=0;" edge="1" parent="1" source="GaJFrRK0M9Px8FpaFqOM-49" target="GaJFrRK0M9Px8FpaFqOM-60">
          <mxGeometry width="50" height="50" relative="1" as="geometry">
            <mxPoint x="250" y="485" as="sourcePoint" />
            <mxPoint x="300" y="435" as="targetPoint" />
          </mxGeometry>
        </mxCell>
        <mxCell id="GaJFrRK0M9Px8FpaFqOM-66" value="" style="endArrow=classic;html=1;rounded=0;entryX=0.5;entryY=1;entryDx=0;entryDy=0;exitX=0.5;exitY=0;exitDx=0;exitDy=0;exitPerimeter=0;" edge="1" parent="1" source="GaJFrRK0M9Px8FpaFqOM-50" target="GaJFrRK0M9Px8FpaFqOM-13">
          <mxGeometry width="50" height="50" relative="1" as="geometry">
            <mxPoint x="250" y="485" as="sourcePoint" />
            <mxPoint x="300" y="435" as="targetPoint" />
          </mxGeometry>
        </mxCell>
        <mxCell id="GaJFrRK0M9Px8FpaFqOM-67" value="" style="endArrow=classic;html=1;rounded=0;exitX=1;exitY=0.5;exitDx=0;exitDy=0;exitPerimeter=0;entryX=0;entryY=0.5;entryDx=0;entryDy=0;" edge="1" parent="1" source="GaJFrRK0M9Px8FpaFqOM-51" target="GaJFrRK0M9Px8FpaFqOM-54">
          <mxGeometry width="50" height="50" relative="1" as="geometry">
            <mxPoint x="250" y="485" as="sourcePoint" />
            <mxPoint x="300" y="435" as="targetPoint" />
          </mxGeometry>
        </mxCell>
      </root>
    </mxGraphModel>
  </diagram>
</mxfile>
